<?xml version="1.0" encoding="utf-8"?>
<!-- Generator: Adobe Illustrator 23.0.1, SVG Export Plug-In . SVG Version: 6.00 Build 0)  -->
<svg version="1.1"
	 id="svg5082" inkscape:version="0.92.2 5c3e80d, 2017-08-06" sodipodi:docname="budgie-restart2.svg" xmlns:cc="http://creativecommons.org/ns#" xmlns:dc="http://purl.org/dc/elements/1.1/" xmlns:inkscape="http://www.inkscape.org/namespaces/inkscape" xmlns:rdf="http://www.w3.org/1999/02/22-rdf-syntax-ns#" xmlns:sodipodi="http://sodipodi.sourceforge.net/DTD/sodipodi-0.dtd" xmlns:svg="http://www.w3.org/2000/svg"
	 xmlns="http://www.w3.org/2000/svg" xmlns:xlink="http://www.w3.org/1999/xlink" x="0px" y="0px" viewBox="0 0 18.3 19.8"
	 style="enable-background:new 0 0 18.3 19.8;" xml:space="preserve">
<style type="text/css">
	.st0{fill:#61BB46;}
	.st1{fill:#FDB827;}
	.st2{fill:#F5821F;}
	.st3{fill:#E03A3E;}
	.st4{fill:#963D97;}
	.st5{fill:#009DDC;}
	.st6{fill:#FFFFFF;}
</style>
<title  id="title5087">Symbolic Icons</title>
<sodipodi:namedview  bordercolor="#000000" borderopacity="0.34509804" fit-margin-bottom="0" fit-margin-left="0" fit-margin-right="0" fit-margin-top="0" id="base" inkscape:current-layer="layer2" inkscape:cx="3.6222888" inkscape:cy="4.1549938" inkscape:document-units="px" inkscape:grid-bbox="true" inkscape:object-nodes="true" inkscape:pageopacity="0" inkscape:pageshadow="2" inkscape:window-height="740" inkscape:window-maximized="1" inkscape:window-width="1360" inkscape:window-x="0" inkscape:window-y="0" inkscape:zoom="33.811791" pagecolor="#37474f" showborder="false" showgrid="false">
	<inkscape:grid  empspacing="4" id="grid5636" originx="-0.28935368" originy="-119.88235" type="xygrid"></inkscape:grid>
</sodipodi:namedview>
<g id="layer4" transform="translate(-0.28935366,-60.349598)" inkscape:groupmode="layer" inkscape:label="status">
</g>
<g id="layer3" transform="translate(-0.28935366,-60.349598)" inkscape:groupmode="layer" inkscape:label="actions">
</g>
<g id="layer2">
	<title>kinto-final</title>
	<path id="Green" class="st0" d="M13.5,3.6H4.7c-1,0-1.9,0.9-1.9,1.9v0.2h12.6V5.5C15.4,4.5,14.5,3.6,13.5,3.6z"/>
	<rect id="Yellow" x="2.8" y="5.7" class="st1" width="12.6" height="2.2"/>
	<rect id="Orange" x="2.8" y="7.8" class="st2" width="12.6" height="2.2"/>
	<rect id="Red" x="2.8" y="10" class="st3" width="12.6" height="2.2"/>
	<path id="Purple" class="st4" d="M2.8,14.3L2.8,14.3h12.6l0,0v-2.1H2.8V14.3z"/>
	<path id="Blue" class="st5" d="M4.7,16.2h9c1-0.1,1.7-1,1.7-1.9H2.8C2.8,15.3,3.7,16.2,4.7,16.2z"/>
	<g id="Border">
		<path class="st6" d="M16.2,2.8c-0.6-0.6-1.4-1-2.2-0.9H4.3c-0.9,0-1.7,0.3-2.2,0.9c-0.6,0.6-1,1.4-1,2.2v9.7c0,0.9,0.3,1.7,1,2.2
			c0.5,0.6,1.3,1,2.2,1h2.1l0,0h2.3l0,0h3.5l0,0l0,0H14c1.7,0,3.1-1.4,3.1-3.1V5C17.2,4.2,16.8,3.4,16.2,2.8z M15.4,14.3
			c0,1-0.7,1.8-1.7,1.9L11,11.6l2.8-2.9h-2.5l-2.5,3V5.9H6.7v10.3H4.7c-1,0-1.9-0.9-1.9-1.9V5.5c0-1,0.9-1.9,1.9-1.9h8.7
			c1,0,1.9,0.9,1.9,1.9L15.4,14.3z M8.7,16.2V14l0.9-0.9l1.7,3.1L8.7,16.2z"/>
	</g>
</g>
<g id="layer1">
</g>
</svg>
