<?xml version="1.0" encoding="utf-8"?>
<!-- Generator: Adobe Illustrator 23.0.1, SVG Export Plug-In . SVG Version: 6.00 Build 0)  -->
<svg version="1.1"
	 id="svg5082" inkscape:version="0.92.2 5c3e80d, 2017-08-06" sodipodi:docname="budgie-restart2.svg" xmlns:cc="http://creativecommons.org/ns#" xmlns:dc="http://purl.org/dc/elements/1.1/" xmlns:inkscape="http://www.inkscape.org/namespaces/inkscape" xmlns:rdf="http://www.w3.org/1999/02/22-rdf-syntax-ns#" xmlns:sodipodi="http://sodipodi.sourceforge.net/DTD/sodipodi-0.dtd" xmlns:svg="http://www.w3.org/2000/svg"
	 xmlns="http://www.w3.org/2000/svg" xmlns:xlink="http://www.w3.org/1999/xlink" x="0px" y="0px" viewBox="0 0 18.3 19.8"
	 style="enable-background:new 0 0 18.3 19.8;" xml:space="preserve">
<style type="text/css">
	.st0{fill:#61BB46;}
	.st1{fill:#FDB827;}
	.st2{fill:#F5821F;}
	.st3{fill:#E03A3E;}
	.st4{fill:#963D97;}
	.st5{fill:#009DDC;}
	.st6{fill:#FFFFFF;}
</style>
<title  id="title5087">Symbolic Icons</title>
<sodipodi:namedview  bordercolor="#000000" borderopacity="0.34509804" fit-margin-bottom="0" fit-margin-left="0" fit-margin-right="0" fit-margin-top="0" id="base" inkscape:current-layer="layer2" inkscape:cx="3.6222888" inkscape:cy="4.1549938" inkscape:document-units="px" inkscape:grid-bbox="true" inkscape:object-nodes="true" inkscape:pageopacity="0" inkscape:pageshadow="2" inkscape:window-height="740" inkscape:window-maximized="1" inkscape:window-width="1360" inkscape:window-x="0" inkscape:window-y="0" inkscape:zoom="33.811791" pagecolor="#37474f" showborder="false" showgrid="false">
	<inkscape:grid  empspacing="4" id="grid5636" originx="-0.28935368" originy="-119.88235" type="xygrid"></inkscape:grid>
</sodipodi:namedview>
<g id="layer4" transform="translate(-0.28935366,-60.349598)" inkscape:groupmode="layer" inkscape:label="status">
</g>
<g id="layer3" transform="translate(-0.28935366,-60.349598)" inkscape:groupmode="layer" inkscape:label="actions">
</g>
<g id="layer2">
	<title>kinto-final</title>
	<path id="Green" class="st0" d="M14.1,2.7h-10c-1.2,0-2.2,1-2.2,2.2v0.2h14.4V4.9C16.3,3.7,15.3,2.7,14.1,2.7z"/>
	<rect id="Yellow" x="1.9" y="5.1" class="st1" width="14.4" height="2.5"/>
	<rect id="Orange" x="1.9" y="7.5" class="st2" width="14.4" height="2.5"/>
	<rect id="Red" x="1.9" y="10" class="st3" width="14.4" height="2.5"/>
	<path id="Purple" class="st4" d="M1.9,14.9C1.9,14.9,1.9,14.9,1.9,14.9l14.4,0c0,0,0,0,0,0v-2.4H1.9V14.9z"/>
	<path id="Blue" class="st5" d="M4.1,17.1l10.3,0c1.1-0.1,1.9-1.1,1.9-2.2H1.9C1.9,16.1,2.9,17.1,4.1,17.1z"/>
	<g id="Border">
		<path class="st6" d="M17.2,1.8c-0.7-0.7-1.6-1.1-2.5-1H3.6c-1,0-1.9,0.4-2.5,1C0.4,2.5,0,3.4,0,4.3v11.1c0,1,0.4,1.9,1.1,2.5
			C1.7,18.6,2.6,19,3.6,19H6v0h2.6v0h4l0,0l0,0h2.1c2,0,3.6-1.6,3.6-3.6V4.3C18.3,3.4,17.9,2.5,17.2,1.8z M16.3,14.9
			c0,1.1-0.8,2.1-1.9,2.2l-3.1-5.3l3.2-3.3h-2.9l-2.9,3.4V5.3H6.3v11.8H4.1c-1.2,0-2.2-1-2.2-2.2v-10c0-1.2,1-2.2,2.2-2.2h10
			c1.2,0,2.2,1,2.2,2.2L16.3,14.9z M8.6,17.1v-2.5l1-1l2,3.6L8.6,17.1z"/>
	</g>
</g>
<g id="layer1">
</g>
</svg>
