<?xml version="1.0" encoding="utf-8"?>
<!-- Generator: Adobe Illustrator 23.0.1, SVG Export Plug-In . SVG Version: 6.00 Build 0)  -->
<svg version="1.1"
	 id="svg5082" inkscape:version="0.92.2 5c3e80d, 2017-08-06" sodipodi:docname="budgie-restart2.svg" xmlns:cc="http://creativecommons.org/ns#" xmlns:dc="http://purl.org/dc/elements/1.1/" xmlns:inkscape="http://www.inkscape.org/namespaces/inkscape" xmlns:rdf="http://www.w3.org/1999/02/22-rdf-syntax-ns#" xmlns:sodipodi="http://sodipodi.sourceforge.net/DTD/sodipodi-0.dtd" xmlns:svg="http://www.w3.org/2000/svg"
	 xmlns="http://www.w3.org/2000/svg" xmlns:xlink="http://www.w3.org/1999/xlink" x="0px" y="0px" viewBox="0 0 18.3 19.8"
	 style="enable-background:new 0 0 18.3 19.8;" xml:space="preserve">
<style type="text/css">
	.st0{fill:#FFFFFF;}
</style>
<title  id="title5087">Symbolic Icons</title>
<sodipodi:namedview  bordercolor="#000000" borderopacity="0.34509804" fit-margin-bottom="0" fit-margin-left="0" fit-margin-right="0" fit-margin-top="0" id="base" inkscape:current-layer="layer2" inkscape:cx="3.6222888" inkscape:cy="4.1549938" inkscape:document-units="px" inkscape:grid-bbox="true" inkscape:object-nodes="true" inkscape:pageopacity="0" inkscape:pageshadow="2" inkscape:window-height="740" inkscape:window-maximized="1" inkscape:window-width="1360" inkscape:window-x="0" inkscape:window-y="0" inkscape:zoom="33.811791" pagecolor="#37474f" showborder="false" showgrid="false">
	<inkscape:grid  empspacing="4" id="grid5636" originx="-0.28935368" originy="-119.88235" type="xygrid"></inkscape:grid>
</sodipodi:namedview>
<g id="layer4" transform="translate(-0.28935366,-60.349598)" inkscape:groupmode="layer" inkscape:label="status">
</g>
<g id="layer3" transform="translate(-0.28935366,-60.349598)" inkscape:groupmode="layer" inkscape:label="actions">
</g>
<g id="layer2">
	<path class="st0" d="M17.3,1.8c-0.7-0.7-1.6-1.1-2.5-1.1H3.6C1.6,0.7,0,2.3,0,4.3v11.1c0,2,1.6,3.6,3.6,3.6H6v0h2.6v0h4l0,0l0,0
		h2.1c2,0,3.6-1.6,3.6-3.6V4.3C18.3,3.4,17.9,2.5,17.3,1.8z M17.2,15.4C17.2,15.5,17.2,15.5,17.2,15.4c0,1.3-1,2.3-2.2,2.5l-1.4-2.4
		L12,12.8L11.5,12l1.9-2l1.6-1.7h-3.2L10.4,10l-1.8,2v-2V7.3V4.8H6v2.5V10v2.8v2.7v2.4H3.6c-1.4,0-2.5-1.1-2.5-2.4c0,0,0,0,0-0.1
		v-2.7V10V7.3V4.5V4.3c0-1.4,1.1-2.5,2.5-2.5h11.1c1.4,0,2.5,1.1,2.5,2.5v0.2v2.7V10v2.8V15.4z M8.6,15.5v-0.4L9.6,14l0.9,1.5
		l1.4,2.4H8.6V15.5z"/>
</g>
<g id="layer1">
</g>
</svg>
