<?xml version="1.0" encoding="utf-8"?>
<!-- Generator: Adobe Illustrator 23.0.1, SVG Export Plug-In . SVG Version: 6.00 Build 0)  -->
<svg version="1.1"
	 id="svg5082" inkscape:version="0.92.2 5c3e80d, 2017-08-06" sodipodi:docname="budgie-restart2.svg" xmlns:cc="http://creativecommons.org/ns#" xmlns:dc="http://purl.org/dc/elements/1.1/" xmlns:inkscape="http://www.inkscape.org/namespaces/inkscape" xmlns:rdf="http://www.w3.org/1999/02/22-rdf-syntax-ns#" xmlns:sodipodi="http://sodipodi.sourceforge.net/DTD/sodipodi-0.dtd" xmlns:svg="http://www.w3.org/2000/svg"
	 xmlns="http://www.w3.org/2000/svg" xmlns:xlink="http://www.w3.org/1999/xlink" x="0px" y="0px" viewBox="0 0 18.3 19.8"
	 style="enable-background:new 0 0 18.3 19.8;" xml:space="preserve">
<title  id="title5087">Symbolic Icons</title>
<sodipodi:namedview  bordercolor="#000000" borderopacity="0.34509804" fit-margin-bottom="0" fit-margin-left="0" fit-margin-right="0" fit-margin-top="0" id="base" inkscape:current-layer="layer2" inkscape:cx="3.6222888" inkscape:cy="4.1549938" inkscape:document-units="px" inkscape:grid-bbox="true" inkscape:object-nodes="true" inkscape:pageopacity="0" inkscape:pageshadow="2" inkscape:window-height="740" inkscape:window-maximized="1" inkscape:window-width="1360" inkscape:window-x="0" inkscape:window-y="0" inkscape:zoom="33.811791" pagecolor="#37474f" showborder="false" showgrid="false">
	<inkscape:grid  empspacing="4" id="grid5636" originx="-0.28935368" originy="-119.88235" type="xygrid"></inkscape:grid>
</sodipodi:namedview>
<g id="layer4" transform="translate(-0.28935366,-60.349598)" inkscape:groupmode="layer" inkscape:label="status">
</g>
<g id="layer3" transform="translate(-0.28935366,-60.349598)" inkscape:groupmode="layer" inkscape:label="actions">
</g>
<g id="layer2">
	<g id="White_K">
		<path d="M17.2,1.8c-0.7-0.7-1.6-1.1-2.5-1.1H3.6c-1,0-1.9,0.4-2.5,1.1S0,3.4,0,4.3v11.1c0,1,0.4,1.9,1.1,2.5
			C1.7,18.7,2.6,19,3.6,19H6V4.8h2.6v7.3l3.3-3.8h3.2L11.5,12l4.1,6.9c0.6-0.2,1.2-0.5,1.6-0.9c0.7-0.7,1.1-1.6,1.1-2.5V4.3
			C18.3,3.4,17.9,2.5,17.2,1.8z"/>
		<polygon points="8.6,15.1 8.6,19 12.5,19 9.6,14 		"/>
	</g>
</g>
<g id="layer1">
</g>
</svg>
