<?xml version="1.0" encoding="utf-8"?>
<!-- Generator: Adobe Illustrator 23.0.1, SVG Export Plug-In . SVG Version: 6.00 Build 0)  -->
<svg version="1.1"
	 id="svg5082" inkscape:version="0.92.2 5c3e80d, 2017-08-06" sodipodi:docname="budgie-restart2.svg" xmlns:cc="http://creativecommons.org/ns#" xmlns:dc="http://purl.org/dc/elements/1.1/" xmlns:inkscape="http://www.inkscape.org/namespaces/inkscape" xmlns:rdf="http://www.w3.org/1999/02/22-rdf-syntax-ns#" xmlns:sodipodi="http://sodipodi.sourceforge.net/DTD/sodipodi-0.dtd" xmlns:svg="http://www.w3.org/2000/svg"
	 xmlns="http://www.w3.org/2000/svg" xmlns:xlink="http://www.w3.org/1999/xlink" x="0px" y="0px" viewBox="0 0 18.3 19.8"
	 style="enable-background:new 0 0 18.3 19.8;" xml:space="preserve">
<title  id="title5087">Symbolic Icons</title>
<sodipodi:namedview  bordercolor="#000000" borderopacity="0.34509804" fit-margin-bottom="0" fit-margin-left="0" fit-margin-right="0" fit-margin-top="0" id="base" inkscape:current-layer="layer2" inkscape:cx="3.6222888" inkscape:cy="4.1549938" inkscape:document-units="px" inkscape:grid-bbox="true" inkscape:object-nodes="true" inkscape:pageopacity="0" inkscape:pageshadow="2" inkscape:window-height="740" inkscape:window-maximized="1" inkscape:window-width="1360" inkscape:window-x="0" inkscape:window-y="0" inkscape:zoom="33.811791" pagecolor="#37474f" showborder="false" showgrid="false">
	<inkscape:grid  empspacing="4" id="grid5636" originx="-0.28935368" originy="-119.88235" type="xygrid"></inkscape:grid>
</sodipodi:namedview>
<g id="layer4" transform="translate(-0.28935366,-60.349598)" inkscape:groupmode="layer" inkscape:label="status">
</g>
<g id="layer3" transform="translate(-0.28935366,-60.349598)" inkscape:groupmode="layer" inkscape:label="actions">
</g>
<g id="layer2">
	<g id="White_K">
		<path d="M16.1,2.9c-0.6-0.6-1.4-1-2.2-1H4.2C3.3,2,2.5,2.3,2,2.9S1,4.3,1,5.1v9.7c0,0.9,0.4,1.7,1,2.2c0.5,0.7,1.3,1,2.2,1h2.1
			V5.6h2.3V12l2.9-3.3h2.8l-3.2,3.2l3.6,6c0.5-0.2,1.1-0.4,1.4-0.8c0.6-0.6,1-1.4,1-2.2V5.1C17,4.3,16.7,3.6,16.1,2.9z"/>
		<polygon points="8.5,14.6 8.5,18 11.9,18 9.4,13.6 		"/>
	</g>
</g>
<g id="layer1">
</g>
</svg>
